<svg xmlns="http://www.w3.org/2000/svg" width="716" height="567.4000244140625" viewBox="0 0 716 567.4000244140625" preserveAspectRatio="none">
            <!-- https://grabient.com/HQBgrAzANKAsAcMT0cAjLAnDNYDsOsATDEUSKWicGWlBMHmtA3kS8AGybSjtRpQICoOEUQQA?style=linearSwatches&steps=13 -->
            <defs>
              <clipPath id="bounds">
                <rect x="0" y="0" width="716" height="567.4000244140625" />
              </clipPath>
            </defs>
            <g clip-path="url(#bounds)"><path d="M 0.000,740.482 L 0.000,-173.082 L 55.077,-173.082 L 55.077,740.482 Z" fill="#0b0b10" fill-opacity="1.000" /><path d="M 55.077,740.482 L 55.077,-173.082 L 110.154,-173.082 L 110.154,740.482 Z" fill="#0f1014" fill-opacity="1.000" /><path d="M 110.154,740.482 L 110.154,-173.082 L 165.231,-173.082 L 165.231,740.482 Z" fill="#131418" fill-opacity="1.000" /><path d="M 165.231,740.482 L 165.231,-173.082 L 220.308,-173.082 L 220.308,740.482 Z" fill="#18191c" fill-opacity="1.000" /><path d="M 220.308,740.482 L 220.308,-173.082 L 275.385,-173.082 L 275.385,740.482 Z" fill="#1c1d20" fill-opacity="1.000" /><path d="M 275.385,740.482 L 275.385,-173.082 L 330.462,-173.082 L 330.462,740.482 Z" fill="#202124" fill-opacity="1.000" /><path d="M 330.462,740.482 L 330.462,-173.082 L 385.538,-173.082 L 385.538,740.482 Z" fill="#242528" fill-opacity="1.000" /><path d="M 385.538,740.482 L 385.538,-173.082 L 440.615,-173.082 L 440.615,740.482 Z" fill="#28292c" fill-opacity="1.000" /><path d="M 440.615,740.482 L 440.615,-173.082 L 495.692,-173.082 L 495.692,740.482 Z" fill="#2c2c30" fill-opacity="1.000" /><path d="M 495.692,740.482 L 495.692,-173.082 L 550.769,-173.082 L 550.769,740.482 Z" fill="#2f3033" fill-opacity="1.000" /><path d="M 550.769,740.482 L 550.769,-173.082 L 605.846,-173.082 L 605.846,740.482 Z" fill="#323236" fill-opacity="1.000" /><path d="M 605.846,740.482 L 605.846,-173.082 L 660.923,-173.082 L 660.923,740.482 Z" fill="#343539" fill-opacity="1.000" /><path d="M 660.923,740.482 L 660.923,-173.082 L 716.000,-173.082 L 716.000,740.482 Z" fill="#36373b" fill-opacity="1.000" /></g>
          </svg>